<?xml version="1.0" encoding="utf-8"?>
<!-- Designed by Vexels.com - 2016 All Rights Reserved - https://vexels.com/terms-and-conditions/  -->

<svg version="1.1" id="Layer_1" xmlns="http://www.w3.org/2000/svg" xmlns:xlink="http://www.w3.org/1999/xlink" x="0px" y="0px"
	 width="1200px" height="1200px" viewBox="0 0 1200 1200" enable-background="new 0 0 1200 1200" xml:space="preserve">
<g>
	<path fill="#FAB30B" d="M952.075,546.255c0,249.095-201.932,451.028-451.028,451.028C251.933,997.282,50,795.35,50,546.255
		S251.933,95.227,501.047,95.227C750.143,95.227,952.075,297.16,952.075,546.255z"/>
	<g>
		<defs>
			<path id="SVGID_1_" d="M952.075,546.255c0,249.095-201.932,451.028-451.028,451.028C251.933,997.282,50,795.35,50,546.255
				S251.933,95.227,501.047,95.227C750.143,95.227,952.075,297.16,952.075,546.255z"/>
		</defs>
		<clipPath id="SVGID_2_">
			<use xlink:href="#SVGID_1_"  overflow="visible"/>
		</clipPath>
		<linearGradient id="SVGID_3_" gradientUnits="userSpaceOnUse" x1="950.0187" y1="993.5602" x2="512.4588" y2="631.0101">
			<stop  offset="0" style="stop-color:#FFFFFF"/>
			<stop  offset="0.0718" style="stop-color:#DFDFDF"/>
			<stop  offset="0.2156" style="stop-color:#A5A5A5"/>
			<stop  offset="0.3593" style="stop-color:#727272"/>
			<stop  offset="0.4998" style="stop-color:#494949"/>
			<stop  offset="0.6362" style="stop-color:#292929"/>
			<stop  offset="0.7674" style="stop-color:#121212"/>
			<stop  offset="0.8912" style="stop-color:#050505"/>
			<stop  offset="1" style="stop-color:#000000"/>
		</linearGradient>
		<polygon opacity="0.5" clip-path="url(#SVGID_2_)" fill="url(#SVGID_3_)" points="260.025,735.738 609.254,1088.646 
			1003.245,1104.773 1150,812.929 978.793,684.297 720.211,425.715 692.97,454.64 590.532,373.693 584.105,370.421 548.21,346.587 
			513.4,373.827 474.349,346.646 390.227,472.82 332.396,425.812 289.434,577.309 304.71,666.117 299.753,684.703 		"/>
	</g>
	<g>
		<polygon fill="#FFFFFF" points="435.124,383.043 432.801,416.905 575.257,427.418 571.753,384.205 		"/>
		<polygon fill="#FFFFFF" points="347.536,493.98 480.68,433.246 592.779,453.11 667.51,569.894 646.504,717.036 500.524,735.719 
			372.066,701.838 306.665,572.217 		"/>
		<g>
			<path fill="#253147" d="M501.047,463.817c-65.111,0-117.849,52.738-117.849,117.848c0,65.111,52.739,117.849,117.849,117.849
				c65.071,0,117.809-52.739,117.809-117.849C618.857,516.555,566.118,463.817,501.047,463.817z M501.047,664.007
				c-45.517,0-82.38-36.844-82.38-82.342c0-45.517,36.863-82.341,82.38-82.341c45.459,0,82.361,36.824,82.361,82.341
				C583.408,627.163,546.506,664.007,501.047,664.007z"/>
			<path fill="#253147" d="M721.121,449.18v-23.368h-49.506v13.998l-7.977-1.375c-29.253-5.072-56.184-25.034-59.941-44.297
				c-3.446-18.161-27.86-33.069-55.487-34.772v-12.778h-24.723v12.43h-48.925v-12.43h-24.743v13.03
				c-25.924,2.865-48.131,17.269-51.48,34.52c-3.679,19.263-30.688,39.225-59.902,44.297l-6.041,1.046v-13.669h-49.448v22.826
				c-26.446,7.629-47.22,33.882-47.22,61.529v181.816c0,29.642,24.258,53.94,53.939,53.94h61.451c29.68,0,57.327,0,61.471,0
				c4.104,0,31.77,0,61.47,0h53.939c29.719,0,57.347,0,61.509,0c4.105,0,31.79,0,61.432,0h61.47c29.642,0,53.94-24.298,53.94-53.94
				V510.167C766.348,483.216,746.619,457.563,721.121,449.18z M449.819,393.246h98.392v17.967h-98.392V393.246z M501.047,720.347
				c-76.591,0-138.662-62.09-138.662-138.682c0-76.59,62.07-138.661,138.662-138.661c76.572,0,138.642,62.07,138.642,138.661
				C639.689,658.256,577.619,720.347,501.047,720.347z"/>
		</g>
		<path opacity="0.5" fill="#FFFFFF" d="M447.515,364.244c0,0-34.481,1.066-44.936,28.228c0,0,8.363,7.299,20.89,4.162
			C423.469,396.635,430.787,366.335,447.515,364.244z"/>
		<path opacity="0.5" fill="#FFFFFF" d="M553.825,364.244c0,0,34.481,1.066,44.936,28.228c0,0-8.363,7.299-20.91,4.162
			C577.851,396.635,570.532,366.335,553.825,364.244z"/>
		<path opacity="0.5" fill="#FFFFFF" d="M283.046,452.026c0,0-40.774,11.791-41.839,69.718c0,0,17.154,16.108,33.242,13.959
			C274.449,535.703,269.086,463.817,283.046,452.026z"/>
		<path opacity="0.5" fill="#FFFFFF" d="M718.565,454.156c0,0,40.774,11.79,41.839,69.737c0,0-17.153,16.089-33.242,13.94
			C727.161,537.833,732.524,465.966,718.565,454.156z"/>
		<path opacity="0.3" d="M272.493,724.761c0,0,12.391,18.993,42.129,19.825h389.073c0,0,23.969-4.124,32.216-22.304
			C735.912,722.283,521.143,747.064,272.493,724.761z"/>
		<path opacity="0.3" d="M548.752,717.21c0,0,79.476-28.19,91.441-112.796C640.193,604.415,678.643,717.21,548.752,717.21z"/>
	</g>
</g>
</svg>
